<svg width="134" height="21" viewBox="0 0 134 21" fill="none" xmlns="http://www.w3.org/2000/svg">
<path d="M0 0V20.223H2.46343V20.2087H8.04911V17.7309H2.46343V2.47775H28V0H0Z" fill="black"/>
<path d="M26.2526 5.90055L9.62448 5.88623C8.5147 5.89228 7.45232 6.33679 6.66892 7.12288C5.88552 7.90896 5.44463 8.97286 5.44238 10.0827C5.44313 11.1929 5.88353 12.2577 6.66725 13.0441C7.45098 13.8305 8.51424 14.2745 9.62448 14.2791H18.2465C18.5841 14.2922 18.9106 14.4031 19.1863 14.5983C19.462 14.7936 19.675 15.0647 19.7995 15.3788C19.9239 15.6929 19.9544 16.0364 19.8871 16.3675C19.8199 16.6986 19.658 17.0031 19.4209 17.2438C19.2643 17.4038 19.0771 17.5307 18.8704 17.6169C18.6637 17.703 18.4418 17.7466 18.2178 17.7451H10.9421V20.2228H18.2178C19.3327 20.2266 20.4034 19.7874 21.1944 19.0017C21.9854 18.2161 22.4319 17.1484 22.4357 16.0335C22.4395 14.9187 22.0003 13.848 21.2147 13.057C20.429 12.266 19.3613 11.8194 18.2465 11.8156H9.61016C9.27084 11.8137 8.93971 11.7113 8.65849 11.5214C8.37727 11.3315 8.15855 11.0626 8.02989 10.7487C7.90123 10.4347 7.8684 10.0896 7.93553 9.75701C8.00265 9.4244 8.16673 9.11909 8.40709 8.87958C8.56368 8.71951 8.75091 8.59263 8.95761 8.5065C9.16431 8.42038 9.38624 8.37678 9.61016 8.3783H25.4362L25.4219 20.2514H27.8982L27.9126 5.91487L26.2526 5.90055Z" fill="black"/>
<path d="M41.1853 6.44083L39.756 7.70407C39.2527 7.00954 38.7494 6.65724 38.2462 6.65724C38.0216 6.64864 37.8016 6.72198 37.6271 6.86359C37.5487 6.91214 37.4829 6.97843 37.4348 7.0571C37.3867 7.13578 37.3578 7.22464 37.3503 7.31654C37.352 7.49061 37.4123 7.65902 37.5214 7.79466C37.9636 8.26533 38.4414 8.70113 38.9508 9.09815C39.6855 9.71215 40.1335 10.1047 40.2895 10.2607C40.6295 10.5875 40.9104 10.9706 41.1199 11.3931C41.2889 11.7627 41.3765 12.1644 41.3766 12.5708C41.3873 12.9553 41.316 13.3377 41.1677 13.6926C41.0193 14.0475 40.7971 14.3667 40.516 14.6292C40.2114 14.9068 39.855 15.1213 39.4671 15.2604C39.0793 15.3994 38.6677 15.4603 38.2562 15.4395C37.5902 15.4549 36.9347 15.2709 36.374 14.911C35.7774 14.4842 35.3035 13.908 35 13.2401L36.6206 12.2638C37.1238 13.1596 37.6674 13.6075 38.3015 13.6075C38.6051 13.6177 38.9014 13.5135 39.1319 13.3156C39.2349 13.2378 39.3187 13.1375 39.3771 13.0224C39.4356 12.9073 39.467 12.7804 39.4691 12.6513C39.4634 12.4001 39.3749 12.1577 39.2175 11.9618C38.8805 11.5718 38.5026 11.2191 38.0901 10.91C37.2909 10.3135 36.5735 9.6147 35.9562 8.83141C35.6469 8.40586 35.4717 7.89766 35.453 7.3719C35.4498 7.03062 35.5201 6.69265 35.659 6.38091C35.798 6.06917 36.0023 5.79096 36.2582 5.56512C36.5248 5.31346 36.8387 5.11716 37.1816 4.98758C37.5246 4.858 37.8898 4.79771 38.2562 4.8102C38.7613 4.81628 39.2572 4.94587 39.7006 5.18766C40.2719 5.51603 40.7757 5.94981 41.1853 6.466" fill="black"/>
<path d="M47.8035 5.06689H49.6505L53.9837 11.7253V5.06689H55.9063V15.1879H54.0542L49.731 8.54456V15.1879H47.8035V5.06689Z" fill="black"/>
<path d="M62.897 5.06689H68.423V6.94916H64.8094V8.7811H68.423V10.6332H64.8094V13.2955H68.423V15.1879H62.897V5.06689Z" fill="black"/>
<path d="M78.0554 5.06689H80.0081L83.9035 15.1879H81.8904L81.1355 13.0992H76.9784L76.153 15.1879H74.1399L78.0554 5.06689ZM79.062 7.74938L77.688 11.227H80.3957L79.062 7.74938Z" fill="black"/>
<path d="M89.3242 5.06689H91.2719V8.55463L94.0198 5.06689H96.3299L92.7969 9.58132L96.6771 15.1879H94.3923L91.2719 10.6885V15.1879H89.3242V5.06689Z" fill="black"/>
<path d="M102.601 5.06689H108.127V6.94916H104.513V8.7811H108.127V10.6332H104.513V13.2955H108.127V15.1879H102.601V5.06689Z" fill="black"/>
<path d="M114.855 5.06687H116.899C117.705 5.02119 118.514 5.12179 119.284 5.36381C119.764 5.56953 120.165 5.92194 120.432 6.37037C120.737 6.85935 120.897 7.42466 120.895 8.001C120.908 8.59722 120.732 9.18234 120.392 9.67189C120.025 10.1476 119.52 10.499 118.947 10.6784L121.348 15.1778H119.239L116.964 10.8898H116.788V15.1778H114.855V5.06687ZM116.783 9.02265H117.387C117.822 9.06196 118.26 8.97826 118.65 8.78108C118.771 8.6877 118.866 8.56541 118.926 8.42552C118.987 8.28564 119.012 8.13269 118.997 7.98086C119.001 7.77498 118.941 7.57297 118.826 7.40209C118.713 7.2407 118.553 7.11777 118.368 7.0498C118.023 6.96135 117.667 6.92572 117.311 6.94411H116.808L116.783 9.02265Z" fill="black" stroke="black" stroke-width="0.112884" stroke-miterlimit="10"/>
<path d="M132.803 6.44087L131.373 7.70411C130.87 7.00958 130.367 6.65729 129.863 6.65729C129.639 6.64868 129.419 6.72202 129.244 6.86363C129.172 6.91651 129.112 6.98527 129.07 7.06464C129.029 7.14402 129.005 7.23192 129.003 7.32162C129.007 7.49527 129.067 7.66299 129.174 7.79973C129.611 8.26982 130.084 8.7056 130.588 9.10323C131.323 9.71723 131.771 10.1098 131.927 10.2658C132.267 10.5926 132.548 10.9757 132.757 11.3982C132.921 11.7689 133.003 12.1705 132.999 12.5759C133.009 12.9604 132.938 13.3428 132.79 13.6976C132.642 14.0525 132.419 14.3718 132.138 14.6343C131.527 15.1911 130.72 15.4825 129.894 15.4446C129.227 15.46 128.572 15.276 128.011 14.9161C127.407 14.4905 126.926 13.9122 126.617 13.2402L128.238 12.2638C128.741 13.1597 129.285 13.6076 129.919 13.6076C130.222 13.6177 130.519 13.5135 130.749 13.3157C130.853 13.2381 130.937 13.1379 130.997 13.0229C131.056 12.9078 131.088 12.7808 131.091 12.6514C131.083 12.3997 130.993 12.1575 130.835 11.9619C130.499 11.5728 130.122 11.2202 129.712 10.91C128.91 10.3132 128.191 9.61252 127.573 8.82642C127.264 8.40087 127.089 7.89267 127.07 7.36691C127.067 7.02563 127.137 6.68766 127.276 6.37592C127.415 6.06419 127.619 5.78597 127.875 5.56013C128.409 5.05683 129.12 4.78538 129.853 4.80521C130.356 4.80355 130.852 4.92447 131.298 5.15751C131.869 5.48588 132.373 5.91966 132.782 6.43584" fill="black"/>
<path d="M132.803 6.44087L131.373 7.70411C130.87 7.00958 130.367 6.65729 129.863 6.65729C129.639 6.64868 129.419 6.72202 129.244 6.86363C129.172 6.91651 129.112 6.98527 129.07 7.06464C129.029 7.14402 129.005 7.23192 129.003 7.32162C129.007 7.49527 129.067 7.66299 129.174 7.79973C129.611 8.26982 130.084 8.7056 130.588 9.10323C131.323 9.71723 131.771 10.1098 131.927 10.2658C132.267 10.5926 132.548 10.9757 132.757 11.3982C132.921 11.7689 133.003 12.1705 132.999 12.5759C133.009 12.9604 132.938 13.3428 132.79 13.6976C132.642 14.0525 132.419 14.3718 132.138 14.6343C131.527 15.1911 130.72 15.4825 129.894 15.4446C129.227 15.46 128.572 15.276 128.011 14.9161C127.407 14.4905 126.926 13.9122 126.617 13.2402L128.238 12.2638C128.741 13.1597 129.285 13.6076 129.919 13.6076C130.222 13.6177 130.519 13.5135 130.749 13.3157C130.853 13.2381 130.937 13.1379 130.997 13.0229C131.056 12.9078 131.088 12.7808 131.091 12.6514C131.083 12.3997 130.993 12.1575 130.835 11.9619C130.499 11.5728 130.122 11.2202 129.712 10.91C128.91 10.3132 128.191 9.61252 127.573 8.82642C127.264 8.40087 127.089 7.89267 127.07 7.36691C127.067 7.02563 127.137 6.68766 127.276 6.37592C127.415 6.06419 127.619 5.78597 127.875 5.56013C128.409 5.05683 129.12 4.78538 129.853 4.80521C130.356 4.80355 130.852 4.92447 131.298 5.15751C131.869 5.48588 132.373 5.91966 132.782 6.43584" stroke="black" stroke-width="0.112884" stroke-miterlimit="10"/>
<path d="M41.1853 6.44083L39.756 7.70407C39.2527 7.00954 38.7494 6.65724 38.2462 6.65724C38.0216 6.64864 37.8016 6.72198 37.6271 6.86359C37.5487 6.91214 37.4829 6.97843 37.4348 7.0571C37.3867 7.13578 37.3578 7.22464 37.3503 7.31654C37.352 7.49061 37.4123 7.65902 37.5214 7.79466C37.9636 8.26533 38.4414 8.70113 38.9508 9.09815C39.6855 9.71215 40.1335 10.1047 40.2895 10.2607C40.6295 10.5875 40.9104 10.9706 41.1199 11.3931C41.2889 11.7627 41.3765 12.1644 41.3766 12.5708C41.3873 12.9553 41.316 13.3377 41.1677 13.6926C41.0193 14.0475 40.7971 14.3667 40.516 14.6292C40.2114 14.9068 39.855 15.1213 39.4671 15.2604C39.0793 15.3994 38.6677 15.4603 38.2562 15.4395C37.5902 15.4549 36.9347 15.2709 36.374 14.911C35.7774 14.4842 35.3035 13.908 35 13.2401L36.6206 12.2638C37.1238 13.1596 37.6674 13.6075 38.3015 13.6075C38.6051 13.6177 38.9014 13.5135 39.1319 13.3156C39.2349 13.2378 39.3187 13.1375 39.3771 13.0224C39.4356 12.9073 39.467 12.7804 39.4691 12.6513C39.4634 12.4001 39.3749 12.1577 39.2175 11.9618C38.8805 11.5718 38.5026 11.2191 38.0901 10.91C37.2909 10.3135 36.5735 9.6147 35.9562 8.83141C35.6469 8.40586 35.4717 7.89766 35.453 7.3719C35.4498 7.03062 35.5201 6.69265 35.659 6.38091C35.798 6.06917 36.0023 5.79096 36.2582 5.56512C36.5248 5.31346 36.8387 5.11716 37.1816 4.98758C37.5246 4.858 37.8898 4.79771 38.2562 4.8102C38.7613 4.81628 39.2572 4.94587 39.7006 5.18766C40.2697 5.50858 40.7734 5.9337 41.1853 6.44083Z" stroke="black" stroke-width="0.112884" stroke-miterlimit="10"/>
<path d="M47.8035 5.06689H49.6505L53.9837 11.7253V5.06689H55.9063V15.1879H54.0542L49.731 8.54456V15.1879H47.8035V5.06689Z" stroke="black" stroke-width="0.112884" stroke-miterlimit="10"/>
<path d="M62.897 5.06689H68.423V6.94916H64.8094V8.7811H68.423V10.6332H64.8094V13.2955H68.423V15.1879H62.897V5.06689Z" stroke="black" stroke-width="0.112884" stroke-miterlimit="10"/>
<path d="M78.0557 5.06689H80.0084L83.9038 15.1879H81.8907L81.1357 13.0992H76.9786L76.1533 15.1879H74.1401L78.0557 5.06689ZM79.0622 7.74938L77.6883 11.227H80.3959L79.0622 7.74938Z" stroke="black" stroke-width="0.112884" stroke-miterlimit="10"/>
<path d="M89.3242 5.06689H91.2719V8.55463L94.0198 5.06689H96.3299L92.7969 9.58132L96.6771 15.1879H94.3923L91.2719 10.6885V15.1879H89.3242V5.06689Z" stroke="black" stroke-width="0.112884" stroke-miterlimit="10"/>
<path d="M102.601 5.06689H108.127V6.94916H104.513V8.7811H108.127V10.6332H104.513V13.2955H108.127V15.1879H102.601V5.06689Z" stroke="black" stroke-width="0.112884" stroke-miterlimit="10"/>
<path d="M114.856 5.06687H116.899C117.706 5.02119 118.514 5.12179 119.285 5.36381C119.764 5.56953 120.166 5.92194 120.432 6.37037C120.737 6.85935 120.898 7.42466 120.895 8.001C120.909 8.59722 120.732 9.18234 120.392 9.67189C120.025 10.1476 119.521 10.499 118.947 10.6784L121.348 15.1778H119.239L116.964 10.8898H116.788V15.1778H114.856V5.06687ZM116.783 9.02265H117.387C117.823 9.06196 118.26 8.97826 118.65 8.78108C118.771 8.6877 118.866 8.56541 118.927 8.42552C118.987 8.28564 119.012 8.13269 118.998 7.98086C119.001 7.77498 118.941 7.57297 118.827 7.40209C118.713 7.2407 118.554 7.11777 118.369 7.0498C118.024 6.96135 117.667 6.92572 117.312 6.94411H116.808L116.783 9.02265Z" stroke="black" stroke-width="0.112884" stroke-miterlimit="10"/>
<path d="M132.803 6.44087L131.373 7.70411C130.87 7.00958 130.367 6.65729 129.863 6.65729C129.639 6.64868 129.419 6.72202 129.244 6.86363C129.172 6.91651 129.112 6.98527 129.07 7.06464C129.029 7.14402 129.005 7.23192 129.003 7.32162C129.007 7.49527 129.067 7.66299 129.174 7.79973C129.611 8.26982 130.084 8.7056 130.588 9.10323C131.323 9.71723 131.771 10.1098 131.927 10.2658C132.267 10.5926 132.548 10.9757 132.757 11.3982C132.921 11.7689 133.003 12.1705 132.999 12.5759C133.009 12.9604 132.938 13.3428 132.79 13.6976C132.642 14.0525 132.419 14.3718 132.138 14.6343C131.527 15.1911 130.72 15.4825 129.894 15.4446C129.227 15.46 128.572 15.276 128.011 14.9161C127.407 14.4905 126.926 13.9122 126.617 13.2402L128.238 12.2638C128.741 13.1597 129.285 13.6076 129.919 13.6076C130.222 13.6177 130.519 13.5135 130.749 13.3157C130.853 13.2381 130.937 13.1379 130.997 13.0229C131.056 12.9078 131.088 12.7808 131.091 12.6514C131.083 12.3997 130.993 12.1575 130.835 11.9619C130.499 11.5728 130.122 11.2202 129.712 10.91C128.91 10.3132 128.191 9.61252 127.573 8.82642C127.264 8.40087 127.089 7.89267 127.07 7.36691C127.067 7.02563 127.137 6.68766 127.276 6.37592C127.415 6.06419 127.619 5.78597 127.875 5.56013C128.409 5.05683 129.12 4.78538 129.853 4.80521C130.356 4.80355 130.852 4.92447 131.298 5.15751C131.877 5.48527 132.387 5.92091 132.803 6.44087Z" stroke="black" stroke-width="0.112884" stroke-miterlimit="10"/>
</svg>
